<svg width="500" height="281" viewBox="0 0 500 281" fill="none" xmlns="http://www.w3.org/2000/svg">
<path d="M450.4 137.564C450.723 138.812 449.767 140 448.478 140H441.014C440.118 140 439.337 139.414 439.082 138.555C421.853 80.4879 352.593 19.7494 257 20C211.989 20.118 162.338 35.6479 115.884 81.123C115.652 81.3508 115.305 81.4269 115 81.3125V81.3125L113.5 80.75L112.5 80.375L112.25 80.2813V80.2813C111.888 80.1455 111.778 79.685 112.035 79.3961C156.948 28.8656 213.307 11.9749 261 11.5C360.987 10.5043 434.555 76.2457 450.4 137.564Z" fill="#D9D9D9"/>
<path d="M414.47 182.506C414.466 181.399 415.363 180.5 416.47 180.5H441.872C443.012 180.5 443.92 179.552 443.859 178.414C443.593 173.407 442.814 160.563 441.495 152.971C441.274 151.7 442.236 150.5 443.525 150.5H451.53C452.404 150.5 453.182 151.066 453.407 151.911C455.404 159.402 455.847 170.063 456.797 178.743C456.907 179.747 457.759 180.5 458.77 180.5H484C485.105 180.5 486 181.395 486 182.5V191.5C486 192.605 485.105 193.5 484 193.5H458.879C457.823 193.5 456.949 194.309 456.874 195.363C456.492 200.723 455.266 216.216 453.425 222.7C453.199 223.496 452.454 224 451.626 224H443.44C442.178 224 441.228 222.85 441.43 221.604C442.784 213.272 443.603 200.556 443.887 195.59C443.952 194.449 443.043 193.5 441.9 193.5H416.495C415.392 193.5 414.498 192.608 414.495 191.506L414.47 182.506Z" fill="#D9D9D9"/>
<path fill-rule="evenodd" clip-rule="evenodd" d="M35 214L34.5 186.5C34.5 186.5 28 182.746 28 176C28 168.5 34.5 164.5 34.5 164.5V133.406C34.5 133.406 34.2617 132.583 34.25 132C34.225 130.751 34.2081 130.916 34.225 130.5C34.25 129.886 38.5 127.5 40.5 127.5C43.5 127.5 44 128.32 44 130C44 131 43.5 132 43.5 132L43.5 158.5C43.5 161.679 43.5 163.5 43.25 165C47.25 165.5 67.656 179.531 68 179.5C79 178.5 81.5 177 81.5 177V128.5C81.5 127.5 83.5 126 88.5 126C90.5 126 91 126.327 91 126.5V174.5C91 174.5 99 174 103 167.5C103.586 166.548 105.371 169.08 105.5 169.5C107.5 176 91 181 91 181C91 181 90.5 214 90 214.5C89.5 215 82 214.5 81.5 214.5C80.5 198.5 68.5 188.375 67 188C65 187.5 62 190 53.5 190C50.5 190 43 189.5 43 189.5L42.5 213L41.5 214.5H35V214ZM43 181.5V173.5C43 173.5 43.0634 173 43.5 173C45.7566 173 55.5 178.5 57 180C57.2761 180.276 57.1109 180.963 57 181C55.5 181.5 54.2646 181.5 52.5 181.5H43ZM81.75 191V184.25C81.75 184.25 77.5 184.5 76.5 186.5C76.2099 187.08 80 191.5 81 191.5C81.2761 191.5 81.75 191 81.75 191Z" fill="#D9D9D9"/>
<path fill-rule="evenodd" clip-rule="evenodd" d="M119.5 166.5V168C113.104 174.888 109.613 182.259 105.216 191.544L105 192H99.5C99.5 192 99.0011 193.193 99.5 193.5C106 197.5 99.25 200.484 99.25 208.5C99.25 211.445 101 213.5 102 214H103.5H105C109.5 211.5 107.366 201.611 113 199.75C119 200.5 123 200.25 123 200.25C123 200.25 123.5 208.5 127 212.25C127 212.25 129 212.5 129.5 212.25C132.5 208.5 128 171 122.5 166.5H119.5ZM121.5 191.5H115.5C114.5 190 117.5 181 120.5 180.5C122 182.5 123 189 121.5 191.5Z" fill="#D9D9D9"/>
<path d="M134.5 195.5C134.5 173 155.5 169.75 159.5 169.75C169.628 169.75 169.25 174.5 169.25 176.5C169.25 180.429 167 180.25 164.5 180.25C161 180.25 160 177 158.5 177C147.5 177 142.5 189 142.5 195.5C142.5 203 147.724 204.25 153 204.25C158 204.25 160.767 201 166 201C168.5 201 169.75 202.424 169.75 204.5C169.75 211.353 155.5 211 152.5 211C148 211 134.5 210.5 134.5 195.5Z" fill="#D9D9D9"/>
<path d="M174.25 172.5L175.5 211H180.5L183 209.5L182.5 197C186.5 203.5 200 212.5 203.5 211C205.546 210.123 206.833 209.5 207.5 206.5C208.389 202.5 193 201.5 190 192.5C196.5 189.5 207.5 176 206 174.5C204.633 173.133 204.433 171 202.5 171C201 171 190 188 182.5 186.5C182.5 186.5 183 171.5 178.729 169.75C177.5 169 174.25 172.5 174.25 172.5Z" fill="#D9D9D9"/>
<path d="M242.5 174.5C246 134 274.365 126.75 287.5 126.75C313.5 126.75 312.5 146 312.5 149C312.5 165.32 295.869 165.253 295.022 165.25L295 165.25C284.697 165.25 282.5 156.5 282.5 154.5C282.5 145.291 293 143.5 293 143.5C293 143.5 288 148.5 288 153C288 158 293 159.5 295 159.5C299.784 159.5 306.25 156.708 306.25 148.5C306.25 132.453 290 134 288 134C273.5 134 252 148.5 251.75 173C251.5 197.5 271.5 205.5 282.5 205.5C295 205.5 298.016 203.161 307.5 200C309 199.5 310.56 205.042 309.5 206.5C305.5 212 289 215.25 279 215.25C269 215.25 243.5 210.5 242.5 174.5Z" fill="#D9D9D9"/>
<path d="M327.5 173C326.5 182.5 322.2 192.5 322.2 199C322.2 200.381 323.13 201.671 324.5 201.5C328.5 201 336 196 337 197C341.19 201.19 330.5 212 323.5 212C317.434 212 315 206.5 315 199C315 186.705 321.5 170.5 325 169.5C325 169.5 327 169.25 327.5 169.5C328 169.75 327.605 172.005 327.5 173Z" fill="#D9D9D9"/>
<path d="M341.5 196C341.5 179.5 352.5 166.5 353.5 167C354.488 167.494 355.768 167.928 355.5 169C355 171 349.5 187.5 349.5 197C349.5 201 350.519 203.5 353.5 203.5C362 203.5 364.56 175.638 369 174.75C371.5 174.25 377.25 195.5 377.25 206.5C377.25 210.714 375 211.5 373.5 211.5C368 211.5 370.5 203.5 368 195.5C367.5 197.5 361.5 211 352 211C350.5 211 341.5 212 341.5 196Z" fill="#D9D9D9"/>
<path fill-rule="evenodd" clip-rule="evenodd" d="M378.5 178.25C378.5 177.225 382 170 397 170C411 170 411.5 179 411.5 180.5C411.5 183.213 408 186.5 408 186.5C408 186.5 414.75 188 414.75 196.5C414.75 204.784 410 211.5 399.5 211.5C395.187 211.5 388.5 210.5 388.5 210.5C388.5 210.5 387 211 385.5 211C381 211 381.75 201 381.75 198C381.75 190.5 384.5 179 384.5 179C384.5 179 383.396 179.75 381 179.75C379 179.75 378.5 179.5 378.5 178.25ZM390.5 185C391 183.5 391 181.5 392.5 177.5C392.735 176.875 394.578 176.5 396 176.5H400.5C401.5 176.5 403.5 177.864 403.5 180.5C403.5 184.5 392.5 186.5 391.5 186.5C390.796 186.5 390.333 185.5 390.5 185ZM390.5 193.5C389.5 194.5 389.5 202.75 389.5 202.75H391C391 202.75 393.718 199.213 398 199C399.379 198.931 401.957 198.586 401.5 199.5C400.382 201.736 395.5 202 395.5 204H400C400 204 407.5 203 407.5 196C407.5 193.5 402.5 192.5 402.5 192.5C402.5 192.5 399.76 192.25 398 192.25C397.169 192.25 391 193 390.5 193.5Z" fill="#D9D9D9"/>
</svg>
