<svg width="534" height="411" viewBox="0 0 534 411" fill="none" xmlns="http://www.w3.org/2000/svg">
<g clip-path="url(#clip0_39_7)">
<path d="M455.283 173.229L455.015 172.736L454.692 172.275L443.412 156.161C441.241 153.06 438.781 150.17 436.066 147.532L421.968 133.837L421.669 133.547L421.347 133.283L407.347 121.783L406.871 121.392L406.351 121.062L391.351 111.562L390.961 111.315L390.551 111.106L368.051 99.6057L367.523 99.3357L366.966 99.1301L343.966 90.6301L343.41 90.4245L342.834 90.2861L317.834 84.2861L317.246 84.1452L316.646 84.0759L290.646 81.0759L290.075 81.01H289.5H266.5H266.056L265.615 81.0493L247.015 82.7025C243.9 82.9795 240.81 83.4997 237.776 84.2584L212.575 90.5586L211.941 90.7171L211.332 90.9568L185.332 101.207L184.773 101.427L184.245 101.713L165.745 111.713L165.14 112.04L164.586 112.446L149.586 123.446L149.373 123.603L149.168 123.77L132.668 137.27L132.132 137.708L131.662 138.216L121.776 148.893C120.384 150.396 118.879 151.791 117.273 153.063L87.3263 176.802C83.2263 180.052 78.4405 182.326 73.3313 183.451L63.5188 185.613C54.5801 187.583 46.9088 193.278 42.4365 201.264C40.3632 204.966 39.0452 209.043 38.5588 213.259L36.4119 231.865C36.261 233.173 35.975 234.462 35.5585 235.712L33.8326 240.889C31.4682 247.982 32.1894 255.742 35.8205 262.278C36.2012 262.963 36.4582 263.71 36.5797 264.485L40.0015 286.299C40.1971 287.546 40.5324 288.767 41.0011 289.939C43.555 296.323 49.7388 300.51 56.6153 300.51H58.9009C62.2795 300.51 65.6042 299.662 68.5702 298.044L63.7817 289.265L68.5703 298.044L69.1372 297.735L64.3487 288.956L69.1373 297.735C69.5106 297.531 69.9264 297.418 70.3516 297.404L93.6768 296.626C94.3189 296.605 94.9553 296.753 95.5221 297.055C100.309 299.608 105.827 300.439 111.154 299.408L117.31 298.216C119.382 297.815 121.503 297.724 123.603 297.945L124.65 287.999L123.603 297.945L124.038 297.99C127.824 298.389 131.646 298.298 135.408 297.719L139.159 297.142L137.639 287.258L139.16 297.142C141.746 296.744 144.365 296.601 146.979 296.714L165.066 297.501L165.283 297.51H165.5H188.5H188.672L188.845 297.504L217.511 296.516L247.524 297.484L275.799 302.132C281.827 303.123 287.97 303.187 294.017 302.323L316.29 299.142C319.016 298.752 321.774 298.645 324.522 298.823L350.356 300.489L350.803 300.518L351.25 300.507L390.626 299.522L415.355 301.995C417.83 302.243 420.276 302.721 422.662 303.422L430.47 305.719C431.992 306.167 433.381 306.981 434.515 308.09L437.138 310.656C450.317 323.549 472.251 319.765 480.349 303.202C480.523 302.844 480.728 302.502 480.96 302.179L472.845 296.336L480.961 302.179L485.454 295.938C487.036 293.741 489.069 291.905 491.417 290.556L499.202 286.079C506.501 281.882 511 274.105 511 265.686C511 258.863 508.038 252.377 502.882 247.908L496.291 242.196L489.742 249.753L496.291 242.196C494.571 240.705 493.086 238.963 491.885 237.03L476.647 212.479L455.283 173.229Z" stroke="white" stroke-width="20"/>
<path d="M483.389 242.303L468 217.51L446.5 178.01L435.22 161.896C433.411 159.311 431.361 156.903 429.098 154.705L415 141.01L401 129.51L386 120.01L363.5 108.51L340.5 100.01L315.5 94.01L289.5 91.01H266.5L247.901 92.6633C245.304 92.8941 242.73 93.3276 240.201 93.9598L215 100.26L189 110.51L170.5 120.51L155.5 131.51L139 145.01L129.114 155.687C127.374 157.566 125.492 159.309 123.485 160.9L93.5382 184.638C88.2488 188.831 82.0745 191.765 75.483 193.217L65.6706 195.379C59.5189 196.735 54.2394 200.654 51.1616 206.15C49.7347 208.698 48.8276 211.504 48.4929 214.405L46.346 233.011C46.116 235.005 45.6801 236.97 45.0454 238.874L43.3194 244.052C41.8415 248.486 42.2923 253.336 44.562 257.422C45.5132 259.134 46.1553 261 46.4589 262.935L49.8807 284.749C49.96 285.255 50.0959 285.75 50.2859 286.225C51.3212 288.813 53.8278 290.51 56.6153 290.51H58.9009C60.6063 290.51 62.2845 290.082 63.7817 289.265L64.3487 288.956C66.092 288.005 68.0337 287.476 70.0184 287.409L93.3436 286.632C95.739 286.552 98.1133 287.104 100.228 288.232C102.992 289.706 106.178 290.185 109.253 289.59L115.409 288.399C118.453 287.809 121.567 287.675 124.65 287.999L125.085 288.045C128.016 288.354 130.975 288.283 133.888 287.835L137.639 287.258C140.872 286.76 144.146 286.582 147.414 286.724L165.5 287.51H188.5L217.5 286.51L248.5 287.51L277.422 292.264C282.444 293.09 287.564 293.144 292.603 292.424L314.876 289.242C318.283 288.755 321.731 288.622 325.166 288.843L351 290.51L391 289.51L416.35 292.045C419.443 292.354 422.501 292.951 425.483 293.829L433.292 296.125C436.383 297.035 439.205 298.688 441.508 300.942L444.131 303.508C452.437 311.633 466.261 309.249 471.365 298.809C471.787 297.945 472.283 297.117 472.845 296.336L477.339 290.095C479.752 286.744 482.852 283.945 486.432 281.887L494.217 277.41C498.413 274.997 501 270.526 501 265.686C501 261.763 499.297 258.034 496.333 255.465L489.742 249.753C487.261 247.603 485.12 245.092 483.389 242.303Z" fill="url(#paint0_linear_39_7)" stroke="url(#paint1_linear_39_7)" stroke-width="25"/>
<g filter="url(#filter0_f_39_7)">
<path d="M465.4 216.075C465.723 217.323 464.767 218.511 463.478 218.511H456.014C455.118 218.511 454.337 217.925 454.082 217.066C436.853 158.999 367.593 98.2604 272 98.511C226.989 98.629 177.338 114.159 130.884 159.634C130.652 159.862 130.305 159.938 130 159.824L128.5 159.261L127.5 158.886L127.25 158.792C126.888 158.657 126.778 158.196 127.035 157.907C171.948 107.377 228.307 90.4859 276 90.011C375.987 89.0153 449.555 154.757 465.4 216.075Z" fill="#3FBBD6"/>
<path d="M429.47 261.017C429.466 259.91 430.363 259.011 431.47 259.011H456.872C458.012 259.011 458.92 258.063 458.859 256.925C458.593 251.918 457.814 239.074 456.495 231.482C456.274 230.211 457.236 229.011 458.525 229.011H466.53C467.404 229.011 468.182 229.577 468.407 230.422C470.404 237.913 470.847 248.575 471.797 257.254C471.907 258.258 472.759 259.011 473.77 259.011H499C500.105 259.011 501 259.906 501 261.011V270.011C501 271.116 500.105 272.011 499 272.011H473.879C472.823 272.011 471.949 272.82 471.874 273.874C471.492 279.234 470.266 294.727 468.425 301.211C468.199 302.007 467.454 302.511 466.626 302.511H458.44C457.178 302.511 456.228 301.361 456.43 300.115C457.784 291.783 458.603 279.067 458.887 274.101C458.952 272.96 458.043 272.011 456.9 272.011H431.495C430.392 272.011 429.498 271.119 429.495 270.017L429.47 261.017Z" fill="#3FBBD6"/>
</g>
<path d="M464.4 217.074C464.723 218.322 463.767 219.51 462.478 219.51H455.014C454.118 219.51 453.337 218.924 453.082 218.065C435.853 159.998 366.593 99.2594 271 99.51C225.989 99.628 176.338 115.158 129.884 160.633C129.652 160.861 129.305 160.937 129 160.823L127.5 160.26L126.5 159.885L126.25 159.791C125.888 159.656 125.778 159.195 126.035 158.906C170.948 108.376 227.307 91.4849 275 91.01C374.987 90.0143 448.555 155.756 464.4 217.074Z" fill="url(#paint2_linear_39_7)"/>
<path d="M428.47 262.016C428.466 260.909 429.363 260.01 430.47 260.01H455.872C457.012 260.01 457.92 259.062 457.859 257.924C457.593 252.917 456.814 240.073 455.495 232.481C455.274 231.21 456.236 230.01 457.525 230.01H465.53C466.404 230.01 467.182 230.576 467.407 231.421C469.404 238.912 469.847 249.573 470.797 258.253C470.907 259.257 471.759 260.01 472.77 260.01H498C499.105 260.01 500 260.905 500 262.01V271.01C500 272.115 499.105 273.01 498 273.01H472.879C471.823 273.01 470.949 273.819 470.874 274.873C470.492 280.233 469.266 295.726 467.425 302.21C467.199 303.006 466.454 303.51 465.626 303.51H457.44C456.178 303.51 455.228 302.36 455.43 301.114C456.784 292.782 457.603 280.066 457.887 275.1C457.952 273.959 457.043 273.01 455.9 273.01H430.495C429.392 273.01 428.498 272.118 428.495 271.016L428.47 262.016Z" fill="url(#paint3_linear_39_7)"/>
<g filter="url(#filter1_f_39_7)">
<path fill-rule="evenodd" clip-rule="evenodd" d="M58.07 285.895L57.565 258.118C57.565 258.118 51 254.259 51 247.513C51 240.012 57.565 235.897 57.565 235.897V204.491C57.565 204.491 57.3242 203.653 57.3125 203.07C57.2875 201.822 57.2703 201.971 57.2872 201.555C57.3122 200.941 61.625 198.525 63.625 198.525C66.625 198.525 67.16 199.37 67.16 201.05C67.16 202.05 66.655 203.07 66.655 203.07L66.655 229.837C66.655 233.016 66.6525 234.902 66.4025 236.402C70.4025 236.902 91.0559 251.079 91.4 251.048C102.4 250.048 105.035 248.523 105.035 248.523V199.535C105.035 198.535 107.105 197.01 112.105 197.01C114.105 197.01 114.63 197.342 114.63 197.515V245.998C114.63 245.998 122.75 245.428 126.75 238.927C127.336 237.975 129.145 240.523 128.16 239.297C130.16 245.798 114.63 252.563 114.63 252.563C114.63 252.563 114.12 285.9 113.62 286.4C113.12 286.9 105.535 286.4 105.035 286.4C104.035 270.399 91.89 260.008 90.39 259.633C88.39 259.133 85.255 261.654 76.755 261.654C73.755 261.654 66.15 261.149 66.15 261.149L65.645 284.885L64.635 286.4H58.07V285.895ZM66.15 253.068V244.988C66.15 244.988 66.2184 244.483 66.655 244.483C68.9116 244.483 78.79 250.053 80.29 251.553C80.5661 251.829 80.4009 252.526 80.29 252.563C78.79 253.063 77.5096 253.068 75.745 253.068H66.15ZM105.287 262.664V255.846C105.287 255.846 100.985 256.118 99.985 258.118C99.6949 258.699 103.53 263.169 104.53 263.169C104.806 263.169 105.287 262.664 105.287 262.664Z" fill="#3FBBD6"/>
<path fill-rule="evenodd" clip-rule="evenodd" d="M144.16 238.897V240.397C137.764 247.285 134.273 254.658 129.876 263.943L129.66 264.399H124.16C124.16 264.399 123.661 265.592 124.16 265.899C130.66 269.899 123.91 272.884 123.91 280.9C123.91 283.845 125.66 285.9 126.66 286.4H128.16H129.66C134.16 283.9 132.026 274.011 137.66 272.149C143.66 272.899 147.66 272.649 147.66 272.649C147.66 272.649 148.16 280.9 151.66 284.65C151.66 284.65 153.66 284.9 154.16 284.65C157.16 280.9 152.66 243.398 147.16 238.897H144.16ZM146.16 263.899H140.16C139.16 262.399 142.16 253.398 145.16 252.898C146.66 254.898 147.66 261.399 146.16 263.899Z" fill="#3FBBD6"/>
<path d="M159.16 267.899C159.16 245.398 180.16 242.148 184.16 242.148C194.288 242.148 193.91 246.898 193.91 248.898C193.91 252.827 191.66 252.648 189.16 252.648C185.66 252.648 184.66 249.398 183.16 249.398C172.16 249.398 167.16 261.399 167.16 267.899C167.16 275.399 172.384 276.649 177.66 276.649C182.66 276.649 185.427 273.399 190.66 273.399C193.16 273.399 194.41 274.824 194.41 276.899C194.41 283.753 180.16 283.4 177.16 283.4C172.66 283.4 159.16 282.9 159.16 267.899Z" fill="#3FBBD6"/>
<path d="M198.91 244.898L200.16 283.4H205.16L207.66 281.9L207.16 269.399C211.16 275.899 224.66 284.9 228.16 283.4C230.206 282.523 231.493 281.9 232.16 278.9C233.049 274.899 217.66 273.899 214.66 264.899C221.16 261.899 232.16 248.398 230.66 246.898C229.293 245.531 229.093 243.398 227.16 243.398C225.66 243.398 214.66 260.399 207.16 258.898C207.16 258.898 207.66 243.898 203.389 242.148C202.16 241.397 198.91 244.898 198.91 244.898Z" fill="#3FBBD6"/>
<path d="M248.91 246.148C252.41 205.645 280.775 198.395 293.91 198.395C319.91 198.395 318.91 217.646 318.91 220.646C318.91 236.967 302.279 236.901 301.432 236.897L301.41 236.897C291.107 236.897 288.91 228.147 288.91 226.147C288.91 216.937 299.41 215.146 299.41 215.146C299.41 215.146 294.41 220.146 294.41 224.647C294.41 229.647 299.41 231.147 301.41 231.147C306.194 231.147 312.66 228.355 312.66 220.146C312.66 204.099 296.41 205.645 294.41 205.645C279.91 205.645 258.41 220.146 258.16 244.648C257.91 269.149 277.91 277.149 288.91 277.149C301.41 277.149 304.426 274.811 313.91 271.649C315.41 271.149 316.97 276.691 315.91 278.15C311.91 283.65 295.41 286.9 285.41 286.9C275.41 286.9 249.91 282.15 248.91 246.148Z" fill="#3FBBD6"/>
<path d="M333.91 244.648C332.91 254.148 328.61 264.149 328.61 270.649C328.61 272.03 329.54 273.321 330.91 273.149C334.91 272.649 342.41 267.649 343.41 268.649C347.6 272.839 336.91 283.65 329.91 283.65C323.844 283.65 321.41 278.15 321.41 270.649C321.41 258.353 327.91 242.148 331.41 241.147C331.41 241.147 333.41 240.897 333.91 241.147C334.41 241.397 334.015 243.653 333.91 244.648Z" fill="#3FBBD6"/>
<path d="M347.91 267.649C347.91 251.148 358.91 238.147 359.91 238.647C360.898 239.141 362.178 239.576 361.91 240.647C361.41 242.648 355.91 259.148 355.91 268.649C355.91 272.649 356.929 275.149 359.91 275.149C368.41 275.149 370.97 247.286 375.41 246.398C377.91 245.898 383.66 267.149 383.66 278.15C383.66 282.364 381.41 283.15 379.91 283.15C374.41 283.15 376.91 275.149 374.41 267.149C373.91 269.149 367.91 282.65 358.41 282.65C356.91 282.65 347.91 283.65 347.91 267.649Z" fill="#3FBBD6"/>
<path fill-rule="evenodd" clip-rule="evenodd" d="M384.91 249.898C384.91 248.873 388.41 241.647 403.41 241.647C417.41 241.647 417.91 250.648 417.91 252.148C417.91 254.861 414.41 258.148 414.41 258.148C414.41 258.148 421.16 259.648 421.16 268.149C421.16 276.434 416.41 283.15 405.91 283.15C401.597 283.15 394.91 282.15 394.91 282.15C394.91 282.15 393.41 282.65 391.91 282.65C387.41 282.65 388.16 272.649 388.16 269.649C388.16 262.149 390.91 250.648 390.91 250.648C390.91 250.648 389.806 251.398 387.41 251.398C385.41 251.398 384.91 251.148 384.91 249.898ZM396.91 256.648C397.41 255.148 397.41 253.148 398.91 249.148C399.145 248.522 400.988 248.148 402.41 248.148H406.91C407.91 248.148 409.91 249.512 409.91 252.148C409.91 256.148 398.91 258.148 397.91 258.148C397.206 258.148 396.743 257.148 396.91 256.648ZM396.91 265.149C395.91 266.149 395.91 274.399 395.91 274.399H397.41C397.41 274.399 400.128 270.862 404.41 270.649C405.789 270.58 408.367 270.235 407.91 271.149C406.792 273.385 401.91 273.649 401.91 275.649H406.41C406.41 275.649 413.91 274.649 413.91 267.649C413.91 265.149 408.91 264.149 408.91 264.149C408.91 264.149 406.17 263.899 404.41 263.899C403.579 263.899 397.41 264.649 396.91 265.149Z" fill="#3FBBD6"/>
</g>
<g filter="url(#filter2_b_39_7)">
<path fill-rule="evenodd" clip-rule="evenodd" d="M56.91 287.005L56.405 259.23C56.405 259.23 49.84 255.371 49.84 248.625C49.84 241.125 56.405 237.01 56.405 237.01V205.605C56.405 205.605 56.1641 204.768 56.1525 204.185C56.1275 202.936 56.1103 203.086 56.1272 202.67C56.1522 202.056 60.465 199.64 62.465 199.64C65.465 199.64 66 200.485 66 202.165C66 203.165 65.495 204.185 65.495 204.185L65.495 230.95C65.495 234.129 65.4925 236.015 65.2425 237.515C69.2425 238.015 89.8959 252.191 90.24 252.16C101.24 251.16 103.875 249.635 103.875 249.635V200.65C103.875 199.65 105.945 198.125 110.945 198.125C112.945 198.125 113.47 198.457 113.47 198.63V247.11C113.47 247.11 121.59 246.54 125.59 240.04C126.176 239.088 127.985 241.636 127 240.41C129 246.91 113.47 253.675 113.47 253.675C113.47 253.675 112.96 287.01 112.46 287.51C111.96 288.01 104.375 287.51 103.875 287.51C102.875 271.51 90.73 261.12 89.23 260.745C87.23 260.245 84.095 262.765 75.595 262.765C72.595 262.765 64.99 262.26 64.99 262.26L64.485 285.995L63.475 287.51H56.91V287.005ZM64.99 254.18V246.1C64.99 246.1 65.0583 245.595 65.495 245.595C67.7516 245.595 77.63 251.165 79.13 252.665C79.4061 252.941 79.2409 253.638 79.13 253.675C77.63 254.175 76.3496 254.18 74.585 254.18H64.99ZM104.127 263.775V256.958C104.127 256.958 99.825 257.23 98.825 259.23C98.5349 259.81 102.37 264.28 103.37 264.28C103.646 264.28 104.127 263.775 104.127 263.775Z" fill="url(#paint4_linear_39_7)"/>
<path fill-rule="evenodd" clip-rule="evenodd" d="M143 240.01V241.51C136.604 248.398 133.113 255.769 128.716 265.054L128.5 265.51H123C123 265.51 122.501 266.703 123 267.01C129.5 271.01 122.75 273.994 122.75 282.01C122.75 284.955 124.5 287.01 125.5 287.51H127H128.5C133 285.01 130.866 275.121 136.5 273.26C142.5 274.01 146.5 273.76 146.5 273.76C146.5 273.76 147 282.01 150.5 285.76C150.5 285.76 152.5 286.01 153 285.76C156 282.01 151.5 244.51 146 240.01H143ZM145 265.01H139C138 263.51 141 254.51 144 254.01C145.5 256.01 146.5 262.51 145 265.01Z" fill="url(#paint5_linear_39_7)"/>
<path d="M158 269.01C158 246.51 179 243.26 183 243.26C193.128 243.26 192.75 248.01 192.75 250.01C192.75 253.939 190.5 253.76 188 253.76C184.5 253.76 183.5 250.51 182 250.51C171 250.51 166 262.51 166 269.01C166 276.51 171.224 277.76 176.5 277.76C181.5 277.76 184.267 274.51 189.5 274.51C192 274.51 193.25 275.934 193.25 278.01C193.25 284.863 179 284.51 176 284.51C171.5 284.51 158 284.01 158 269.01Z" fill="url(#paint6_linear_39_7)"/>
<path d="M197.75 246.01L199 284.51H204L206.5 283.01L206 270.51C210 277.01 223.5 286.01 227 284.51C229.046 283.633 230.333 283.01 231 280.01C231.889 276.01 216.5 275.01 213.5 266.01C220 263.01 231 249.51 229.5 248.01C228.133 246.643 227.933 244.51 226 244.51C224.5 244.51 213.5 261.51 206 260.01C206 260.01 206.5 245.01 202.229 243.26C201 242.51 197.75 246.01 197.75 246.01Z" fill="url(#paint7_linear_39_7)"/>
<path d="M247.75 247.26C251.25 206.76 279.615 199.51 292.75 199.51C318.75 199.51 317.75 218.76 317.75 221.76C317.75 238.08 301.119 238.013 300.272 238.01L300.25 238.01C289.947 238.01 287.75 229.26 287.75 227.26C287.75 218.051 298.25 216.26 298.25 216.26C298.25 216.26 293.25 221.26 293.25 225.76C293.25 230.76 298.25 232.26 300.25 232.26C305.034 232.26 311.5 229.468 311.5 221.26C311.5 205.213 295.25 206.76 293.25 206.76C278.75 206.76 257.25 221.26 257 245.76C256.75 270.26 276.75 278.26 287.75 278.26C300.25 278.26 303.266 275.921 312.75 272.76C314.25 272.26 315.81 277.802 314.75 279.26C310.75 284.76 294.25 288.01 284.25 288.01C274.25 288.01 248.75 283.26 247.75 247.26Z" fill="url(#paint8_linear_39_7)"/>
<path d="M332.75 245.76C331.75 255.26 327.45 265.26 327.45 271.76C327.45 273.141 328.38 274.431 329.75 274.26C333.75 273.76 341.25 268.76 342.25 269.76C346.44 273.95 335.75 284.76 328.75 284.76C322.684 284.76 320.25 279.26 320.25 271.76C320.25 259.465 326.75 243.26 330.25 242.26C330.25 242.26 332.25 242.01 332.75 242.26C333.25 242.51 332.855 244.765 332.75 245.76Z" fill="url(#paint9_linear_39_7)"/>
<path d="M346.75 268.76C346.75 252.26 357.75 239.26 358.75 239.76C359.738 240.254 361.018 240.688 360.75 241.76C360.25 243.76 354.75 260.26 354.75 269.76C354.75 273.76 355.77 276.26 358.75 276.26C367.25 276.26 369.81 248.398 374.25 247.51C376.75 247.01 382.5 268.26 382.5 279.26C382.5 283.474 380.25 284.26 378.75 284.26C373.25 284.26 375.75 276.26 373.25 268.26C372.75 270.26 366.75 283.76 357.25 283.76C355.75 283.76 346.75 284.76 346.75 268.76Z" fill="url(#paint10_linear_39_7)"/>
<path fill-rule="evenodd" clip-rule="evenodd" d="M383.75 251.01C383.75 249.985 387.25 242.76 402.25 242.76C416.25 242.76 416.75 251.76 416.75 253.26C416.75 255.973 413.25 259.26 413.25 259.26C413.25 259.26 420 260.76 420 269.26C420 277.544 415.25 284.26 404.75 284.26C400.437 284.26 393.75 283.26 393.75 283.26C393.75 283.26 392.25 283.76 390.75 283.76C386.25 283.76 387 273.76 387 270.76C387 263.26 389.75 251.76 389.75 251.76C389.75 251.76 388.646 252.51 386.25 252.51C384.25 252.51 383.75 252.26 383.75 251.01ZM395.75 257.76C396.25 256.26 396.25 254.26 397.75 250.26C397.985 249.635 399.829 249.26 401.25 249.26H405.75C406.75 249.26 408.75 250.624 408.75 253.26C408.75 257.26 397.75 259.26 396.75 259.26C396.046 259.26 395.583 258.26 395.75 257.76ZM395.75 266.26C394.75 267.26 394.75 275.51 394.75 275.51H396.25C396.25 275.51 398.968 271.973 403.25 271.76C404.629 271.691 407.207 271.346 406.75 272.26C405.632 274.496 400.75 274.76 400.75 276.76H405.25C405.25 276.76 412.75 275.76 412.75 268.76C412.75 266.26 407.75 265.26 407.75 265.26C407.75 265.26 405.01 265.01 403.25 265.01C402.419 265.01 396.25 265.76 395.75 266.26Z" fill="url(#paint11_linear_39_7)"/>
</g>
</g>
<defs>
<filter id="filter0_f_39_7" x="123.895" y="86.9998" width="380.106" height="218.511" filterUnits="userSpaceOnUse" color-interpolation-filters="sRGB">
<feFlood flood-opacity="0" result="BackgroundImageFix"/>
<feBlend mode="normal" in="SourceGraphic" in2="BackgroundImageFix" result="shape"/>
<feGaussianBlur stdDeviation="1.5" result="effect1_foregroundBlur_39_7"/>
</filter>
<filter id="filter1_f_39_7" x="48" y="194.01" width="376.16" height="95.89" filterUnits="userSpaceOnUse" color-interpolation-filters="sRGB">
<feFlood flood-opacity="0" result="BackgroundImageFix"/>
<feBlend mode="normal" in="SourceGraphic" in2="BackgroundImageFix" result="shape"/>
<feGaussianBlur stdDeviation="1.5" result="effect1_foregroundBlur_39_7"/>
</filter>
<filter id="filter2_b_39_7" x="45.84" y="194.125" width="378.16" height="97.885" filterUnits="userSpaceOnUse" color-interpolation-filters="sRGB">
<feFlood flood-opacity="0" result="BackgroundImageFix"/>
<feGaussianBlur in="BackgroundImageFix" stdDeviation="2"/>
<feComposite in2="SourceAlpha" operator="in" result="effect1_backgroundBlur_39_7"/>
<feBlend mode="normal" in="SourceGraphic" in2="effect1_backgroundBlur_39_7" result="shape"/>
</filter>
<linearGradient id="paint0_linear_39_7" x1="212.5" y1="360.51" x2="308.5" y2="122.51" gradientUnits="userSpaceOnUse">
<stop stop-color="#00A0AE"/>
<stop offset="1" stop-color="#012034"/>
</linearGradient>
<linearGradient id="paint1_linear_39_7" x1="212.5" y1="360.51" x2="308.5" y2="122.51" gradientUnits="userSpaceOnUse">
<stop stop-color="#00A0AE"/>
<stop offset="1" stop-color="#012034"/>
</linearGradient>
<linearGradient id="paint2_linear_39_7" x1="294.114" y1="387.441" x2="400.459" y2="231.664" gradientUnits="userSpaceOnUse">
<stop stop-color="#AFBACC"/>
<stop offset="1" stop-color="#F8F9FD"/>
</linearGradient>
<linearGradient id="paint3_linear_39_7" x1="294.114" y1="387.441" x2="400.459" y2="231.664" gradientUnits="userSpaceOnUse">
<stop stop-color="#AFBACC"/>
<stop offset="1" stop-color="#F8F9FD"/>
</linearGradient>
<linearGradient id="paint4_linear_39_7" x1="216.5" y1="323.51" x2="242.5" y2="234.51" gradientUnits="userSpaceOnUse">
<stop stop-color="#AFBACC"/>
<stop offset="1" stop-color="#F8F9FD"/>
</linearGradient>
<linearGradient id="paint5_linear_39_7" x1="216.5" y1="323.51" x2="242.5" y2="234.51" gradientUnits="userSpaceOnUse">
<stop stop-color="#AFBACC"/>
<stop offset="1" stop-color="#F8F9FD"/>
</linearGradient>
<linearGradient id="paint6_linear_39_7" x1="216.5" y1="323.51" x2="242.5" y2="234.51" gradientUnits="userSpaceOnUse">
<stop stop-color="#AFBACC"/>
<stop offset="1" stop-color="#F8F9FD"/>
</linearGradient>
<linearGradient id="paint7_linear_39_7" x1="216.5" y1="323.51" x2="242.5" y2="234.51" gradientUnits="userSpaceOnUse">
<stop stop-color="#AFBACC"/>
<stop offset="1" stop-color="#F8F9FD"/>
</linearGradient>
<linearGradient id="paint8_linear_39_7" x1="216.5" y1="323.51" x2="242.5" y2="234.51" gradientUnits="userSpaceOnUse">
<stop stop-color="#AFBACC"/>
<stop offset="1" stop-color="#F8F9FD"/>
</linearGradient>
<linearGradient id="paint9_linear_39_7" x1="216.5" y1="323.51" x2="242.5" y2="234.51" gradientUnits="userSpaceOnUse">
<stop stop-color="#AFBACC"/>
<stop offset="1" stop-color="#F8F9FD"/>
</linearGradient>
<linearGradient id="paint10_linear_39_7" x1="216.5" y1="323.51" x2="242.5" y2="234.51" gradientUnits="userSpaceOnUse">
<stop stop-color="#AFBACC"/>
<stop offset="1" stop-color="#F8F9FD"/>
</linearGradient>
<linearGradient id="paint11_linear_39_7" x1="216.5" y1="323.51" x2="242.5" y2="234.51" gradientUnits="userSpaceOnUse">
<stop stop-color="#AFBACC"/>
<stop offset="1" stop-color="#F8F9FD"/>
</linearGradient>
<clipPath id="clip0_39_7">
<rect width="534" height="411" fill="white"/>
</clipPath>
</defs>
</svg>
