<svg width="500" height="281" viewBox="0 0 500 281" fill="none" xmlns="http://www.w3.org/2000/svg">
<g clip-path="url(#clip0_39_7)">
<path fill-rule="evenodd" clip-rule="evenodd" d="M35 214L34.5 186.5C34.5 186.5 28 182.746 28 176C28 168.5 34.5 164.5 34.5 164.5V133.406C34.5 133.406 34.2617 132.583 34.25 132C34.225 130.751 34.2081 130.916 34.225 130.5C34.25 129.886 38.5 127.5 40.5 127.5C43.5 127.5 44 128.32 44 130C44 131 43.5 132 43.5 132L43.5 158.5C43.5 161.679 43.5 163.5 43.25 165C47.25 165.5 67.656 179.531 68 179.5C79 178.5 81.5 177 81.5 177V128.5C81.5 127.5 83.5 126 88.5 126C90.5 126 91 126.327 91 126.5V174.5C91 174.5 99 174 103 167.5C103.586 166.548 105.371 169.08 105.5 169.5C107.5 176 91 181 91 181C91 181 90.5 214 90 214.5C89.5 215 82 214.5 81.5 214.5C80.5 198.5 68.5 188.375 67 188C65 187.5 62 190 53.5 190C50.5 190 43 189.5 43 189.5L42.5 213L41.5 214.5H35V214ZM43 181.5V173.5C43 173.5 43.0634 173 43.5 173C45.7566 173 55.5 178.5 57 180C57.2761 180.276 57.1109 180.963 57 181C55.5 181.5 54.2646 181.5 52.5 181.5H43ZM81.75 191V184.25C81.75 184.25 77.5 184.5 76.5 186.5C76.2099 187.08 80 191.5 81 191.5C81.2761 191.5 81.75 191 81.75 191Z" fill="#D9D9D9"/>
<path fill-rule="evenodd" clip-rule="evenodd" d="M119.5 166.5V168C113.104 174.888 109.613 182.259 105.216 191.544L105 192H99.5C99.5 192 99.0011 193.193 99.5 193.5C106 197.5 99.25 200.484 99.25 208.5C99.25 211.445 101 213.5 102 214H103.5H105C109.5 211.5 107.366 201.611 113 199.75C119 200.5 123 200.25 123 200.25C123 200.25 123.5 208.5 127 212.25C127 212.25 129 212.5 129.5 212.25C132.5 208.5 128 171 122.5 166.5H119.5ZM121.5 191.5H115.5C114.5 190 117.5 181 120.5 180.5C122 182.5 123 189 121.5 191.5Z" fill="#D9D9D9"/>
</g>
<defs>
<clipPath id="clip0_39_7">
<rect width="500" height="281" fill="white"/>
</clipPath>
</defs>
</svg>
