<svg width="500" height="281" viewBox="0 0 500 281" fill="none" xmlns="http://www.w3.org/2000/svg">
<g clip-path="url(#clip0_39_7)">
<path d="M469.389 162.793L454 138L432.5 98.5L421.22 82.3858C419.411 79.8011 417.361 77.3934 415.098 75.195L401 61.5L387 50L372 40.5L349.5 29L326.5 20.5L301.5 14.5L275.5 11.5H252.5L233.901 13.1533C231.304 13.3841 228.73 13.8176 226.201 14.4498L201 20.75L175 31L156.5 41L141.5 52L125 65.5L115.114 76.1772C113.374 78.0563 111.492 79.7989 109.485 81.3897L79.5382 105.128C74.2488 109.321 68.0745 112.255 61.483 113.707L51.6706 115.869C45.5189 117.225 40.2394 121.144 37.1616 126.64C35.7347 129.188 34.8276 131.994 34.4929 134.895L32.346 153.501C32.116 155.495 31.6801 157.46 31.0454 159.364L29.3194 164.542C27.8415 168.976 28.2923 173.826 30.562 177.912C31.5132 179.624 32.1553 181.49 32.4589 183.425L35.8807 205.239C35.96 205.745 36.0959 206.24 36.2859 206.715C37.3212 209.303 39.8278 211 42.6153 211H44.9009C46.6063 211 48.2845 210.572 49.7817 209.755L50.3487 209.446C52.092 208.495 54.0337 207.966 56.0184 207.899L79.3436 207.122C81.739 207.042 84.1133 207.594 86.228 208.722C88.9918 210.196 92.1781 210.675 95.2534 210.08L101.409 208.889C104.453 208.299 107.567 208.165 110.65 208.489L111.085 208.535C114.016 208.844 116.975 208.773 119.888 208.325L123.639 207.748C126.872 207.25 130.146 207.072 133.414 207.214L151.5 208H174.5L203.5 207L234.5 208L263.422 212.754C268.444 213.58 273.564 213.634 278.603 212.914L300.876 209.732C304.283 209.245 307.731 209.112 311.166 209.333L337 211L377 210L402.35 212.535C405.443 212.844 408.501 213.441 411.483 214.319L419.292 216.615C422.383 217.525 425.205 219.178 427.508 221.432L430.131 223.998C438.437 232.123 452.261 229.739 457.365 219.299C457.787 218.435 458.283 217.607 458.845 216.826L463.339 210.585C465.752 207.234 468.852 204.435 472.432 202.377L480.217 197.9C484.413 195.487 487 191.016 487 186.176C487 182.253 485.297 178.524 482.333 175.955L475.742 170.243C473.261 168.093 471.12 165.582 469.389 162.793Z" fill="url(#paint0_linear_39_7)" stroke="url(#paint1_linear_39_7)" stroke-width="25"/>
<g filter="url(#filter0_f_39_7)">
<path d="M451.4 136.565C451.723 137.813 450.767 139.001 449.478 139.001H442.014C441.118 139.001 440.337 138.415 440.082 137.556C422.853 79.4889 353.593 18.7504 258 19.001C212.989 19.119 163.338 34.6489 116.884 80.124C116.652 80.3519 116.305 80.4279 116 80.3135V80.3135L114.5 79.751L113.5 79.376L113.25 79.2823V79.2823C112.888 79.1465 112.778 78.686 113.035 78.3971C157.948 27.8666 214.307 10.9759 262 10.501C361.987 9.50534 435.555 75.2467 451.4 136.565Z" fill="#3FBBD6"/>
<path d="M415.47 181.507C415.466 180.4 416.363 179.501 417.47 179.501H442.872C444.012 179.501 444.92 178.553 444.859 177.415C444.593 172.408 443.814 159.564 442.495 151.972C442.274 150.701 443.236 149.501 444.525 149.501H452.53C453.404 149.501 454.182 150.067 454.407 150.912C456.404 158.403 456.847 169.065 457.797 177.744C457.907 178.748 458.759 179.501 459.77 179.501H485C486.105 179.501 487 180.396 487 181.501V190.501C487 191.606 486.105 192.501 485 192.501H459.879C458.823 192.501 457.949 193.31 457.874 194.364C457.492 199.724 456.266 215.217 454.425 221.701C454.199 222.497 453.454 223.001 452.626 223.001H444.44C443.178 223.001 442.228 221.851 442.43 220.605C443.784 212.273 444.603 199.557 444.887 194.591C444.952 193.45 444.043 192.501 442.9 192.501H417.495C416.392 192.501 415.498 191.609 415.495 190.507L415.47 181.507Z" fill="#3FBBD6"/>
</g>
<path d="M450.4 137.564C450.723 138.812 449.767 140 448.478 140H441.014C440.118 140 439.337 139.414 439.082 138.555C421.853 80.4879 352.593 19.7494 257 20C211.989 20.118 162.338 35.6479 115.884 81.123C115.652 81.3508 115.305 81.4269 115 81.3125V81.3125L113.5 80.75L112.5 80.375L112.25 80.2813V80.2813C111.888 80.1455 111.778 79.685 112.035 79.3961C156.948 28.8656 213.307 11.9749 261 11.5C360.987 10.5043 434.555 76.2457 450.4 137.564Z" fill="url(#paint2_linear_39_7)"/>
<path d="M414.47 182.506C414.466 181.399 415.363 180.5 416.47 180.5H441.872C443.012 180.5 443.92 179.552 443.859 178.414C443.593 173.407 442.814 160.563 441.495 152.971C441.274 151.7 442.236 150.5 443.525 150.5H451.53C452.404 150.5 453.182 151.066 453.407 151.911C455.404 159.402 455.847 170.063 456.797 178.743C456.907 179.747 457.759 180.5 458.77 180.5H484C485.105 180.5 486 181.395 486 182.5V191.5C486 192.605 485.105 193.5 484 193.5H458.879C457.823 193.5 456.949 194.309 456.874 195.363C456.492 200.723 455.266 216.216 453.425 222.7C453.199 223.496 452.454 224 451.626 224H443.44C442.178 224 441.228 222.85 441.43 221.604C442.784 213.272 443.603 200.556 443.887 195.59C443.952 194.449 443.043 193.5 441.9 193.5H416.495C415.392 193.5 414.498 192.608 414.495 191.506L414.47 182.506Z" fill="url(#paint3_linear_39_7)"/>
<g filter="url(#filter1_f_39_7)">
<path fill-rule="evenodd" clip-rule="evenodd" d="M44.07 206.385L43.565 178.608C43.565 178.608 37 174.749 37 168.003C37 160.502 43.565 156.387 43.565 156.387V124.981C43.565 124.981 43.3242 124.143 43.3125 123.56C43.2875 122.312 43.2703 122.461 43.2872 122.045C43.3122 121.431 47.625 119.015 49.625 119.015C52.625 119.015 53.16 119.86 53.16 121.54C53.16 122.54 52.655 123.56 52.655 123.56L52.655 150.327C52.655 153.506 52.6525 155.392 52.4025 156.892C56.4025 157.392 77.0559 171.569 77.4 171.538C88.4 170.538 91.035 169.013 91.035 169.013V120.025C91.035 119.025 93.105 117.5 98.105 117.5C100.105 117.5 100.63 117.832 100.63 118.005V166.488C100.63 166.488 108.75 165.918 112.75 159.417C113.336 158.465 115.145 161.013 114.16 159.787C116.16 166.288 100.63 173.053 100.63 173.053C100.63 173.053 100.12 206.39 99.62 206.89C99.12 207.39 91.535 206.89 91.035 206.89C90.035 190.889 77.89 180.498 76.39 180.123C74.39 179.623 71.255 182.144 62.755 182.144C59.755 182.144 52.15 181.639 52.15 181.639L51.645 205.375L50.635 206.89H44.07V206.385ZM52.15 173.558V165.478C52.15 165.478 52.2184 164.973 52.655 164.973C54.9116 164.973 64.79 170.543 66.29 172.043C66.5661 172.319 66.4009 173.016 66.29 173.053C64.79 173.553 63.5096 173.558 61.745 173.558H52.15ZM91.2875 183.154V176.336C91.2875 176.336 86.985 176.608 85.985 178.608C85.6949 179.189 89.53 183.659 90.53 183.659C90.8061 183.659 91.2875 183.154 91.2875 183.154Z" fill="#3FBBD6"/>
<path fill-rule="evenodd" clip-rule="evenodd" d="M130.16 159.387V160.887C123.764 167.775 120.273 175.148 115.876 184.433L115.66 184.889H110.16C110.16 184.889 109.661 186.082 110.16 186.389C116.66 190.389 109.91 193.374 109.91 201.39C109.91 204.335 111.66 206.39 112.66 206.89H114.16H115.66C120.16 204.39 118.026 194.501 123.66 192.639C129.66 193.389 133.66 193.139 133.66 193.139C133.66 193.139 134.16 201.39 137.66 205.14C137.66 205.14 139.66 205.39 140.16 205.14C143.16 201.39 138.66 163.888 133.16 159.387H130.16ZM132.16 184.389H126.16C125.16 182.889 128.16 173.888 131.16 173.388C132.66 175.388 133.66 181.889 132.16 184.389Z" fill="#3FBBD6"/>
<path d="M145.16 188.389C145.16 165.888 166.16 162.638 170.16 162.638C180.288 162.638 179.91 167.388 179.91 169.388C179.91 173.317 177.66 173.138 175.16 173.138C171.66 173.138 170.66 169.888 169.16 169.888C158.16 169.888 153.16 181.889 153.16 188.389C153.16 195.889 158.384 197.139 163.66 197.139C168.66 197.139 171.427 193.889 176.66 193.889C179.16 193.889 180.41 195.314 180.41 197.389C180.41 204.243 166.16 203.89 163.16 203.89C158.66 203.89 145.16 203.39 145.16 188.389Z" fill="#3FBBD6"/>
<path d="M184.91 165.388L186.16 203.89H191.16L193.66 202.39L193.16 189.889C197.16 196.389 210.66 205.39 214.16 203.89C216.206 203.013 217.493 202.39 218.16 199.39C219.049 195.389 203.66 194.389 200.66 185.389C207.16 182.389 218.16 168.888 216.66 167.388C215.293 166.021 215.093 163.888 213.16 163.888C211.66 163.888 200.66 180.889 193.16 179.388C193.16 179.388 193.66 164.388 189.389 162.638C188.16 161.887 184.91 165.388 184.91 165.388Z" fill="#3FBBD6"/>
<path d="M234.91 166.638C238.41 126.135 266.775 118.885 279.91 118.885C305.91 118.885 304.91 138.136 304.91 141.136C304.91 157.457 288.279 157.391 287.432 157.387L287.41 157.387C277.107 157.387 274.91 148.637 274.91 146.637C274.91 137.427 285.41 135.636 285.41 135.636C285.41 135.636 280.41 140.636 280.41 145.137C280.41 150.137 285.41 151.637 287.41 151.637C292.194 151.637 298.66 148.845 298.66 140.636C298.66 124.589 282.41 126.135 280.41 126.135C265.91 126.135 244.41 140.636 244.16 165.138C243.91 189.639 263.91 197.639 274.91 197.639C287.41 197.639 290.426 195.301 299.91 192.139C301.41 191.639 302.97 197.181 301.91 198.64C297.91 204.14 281.41 207.39 271.41 207.39C261.41 207.39 235.91 202.64 234.91 166.638Z" fill="#3FBBD6"/>
<path d="M319.91 165.138C318.91 174.638 314.61 184.639 314.61 191.139C314.61 192.52 315.54 193.81 316.91 193.639C320.91 193.139 328.41 188.139 329.41 189.139C333.6 193.329 322.91 204.14 315.91 204.14C309.844 204.14 307.41 198.64 307.41 191.139C307.41 178.843 313.91 162.638 317.41 161.637C317.41 161.637 319.41 161.387 319.91 161.637C320.41 161.887 320.015 164.143 319.91 165.138Z" fill="#3FBBD6"/>
<path d="M333.91 188.139C333.91 171.638 344.91 158.637 345.91 159.137C346.898 159.631 348.178 160.066 347.91 161.137C347.41 163.138 341.91 179.638 341.91 189.139C341.91 193.139 342.929 195.639 345.91 195.639C354.41 195.639 356.97 167.776 361.41 166.888C363.91 166.388 369.66 187.639 369.66 198.64C369.66 202.854 367.41 203.64 365.91 203.64C360.41 203.64 362.91 195.639 360.41 187.639C359.91 189.639 353.91 203.14 344.41 203.14C342.91 203.14 333.91 204.14 333.91 188.139Z" fill="#3FBBD6"/>
<path fill-rule="evenodd" clip-rule="evenodd" d="M370.91 170.388C370.91 169.363 374.41 162.137 389.41 162.137C403.41 162.137 403.91 171.138 403.91 172.638C403.91 175.351 400.41 178.638 400.41 178.638C400.41 178.638 407.16 180.138 407.16 188.639C407.16 196.924 402.41 203.64 391.91 203.64C387.597 203.64 380.91 202.64 380.91 202.64C380.91 202.64 379.41 203.14 377.91 203.14C373.41 203.14 374.16 193.139 374.16 190.139C374.16 182.639 376.91 171.138 376.91 171.138C376.91 171.138 375.806 171.888 373.41 171.888C371.41 171.888 370.91 171.638 370.91 170.388ZM382.91 177.138C383.41 175.638 383.41 173.638 384.91 169.638C385.145 169.012 386.988 168.638 388.41 168.638H392.91C393.91 168.638 395.91 170.002 395.91 172.638C395.91 176.638 384.91 178.638 383.91 178.638C383.206 178.638 382.743 177.638 382.91 177.138ZM382.91 185.639C381.91 186.639 381.91 194.889 381.91 194.889H383.41C383.41 194.889 386.128 191.352 390.41 191.139C391.789 191.07 394.367 190.725 393.91 191.639C392.792 193.875 387.91 194.139 387.91 196.139H392.41C392.41 196.139 399.91 195.139 399.91 188.139C399.91 185.639 394.91 184.639 394.91 184.639C394.91 184.639 392.17 184.389 390.41 184.389C389.579 184.389 383.41 185.139 382.91 185.639Z" fill="#3FBBD6"/>
</g>
<g filter="url(#filter2_b_39_7)">
<path fill-rule="evenodd" clip-rule="evenodd" d="M42.91 207.495L42.405 179.72C42.405 179.72 35.84 175.861 35.84 169.115C35.84 161.615 42.405 157.5 42.405 157.5V126.095C42.405 126.095 42.1641 125.258 42.1525 124.675C42.1275 123.426 42.1103 123.576 42.1272 123.16C42.1522 122.546 46.465 120.13 48.465 120.13C51.465 120.13 52 120.975 52 122.655C52 123.655 51.495 124.675 51.495 124.675L51.495 151.44C51.495 154.619 51.4925 156.505 51.2425 158.005C55.2425 158.505 75.8959 172.681 76.24 172.65C87.24 171.65 89.875 170.125 89.875 170.125V121.14C89.875 120.14 91.945 118.615 96.945 118.615C98.945 118.615 99.47 118.947 99.47 119.12V167.6C99.47 167.6 107.59 167.03 111.59 160.53C112.176 159.578 113.985 162.126 113 160.9C115 167.4 99.47 174.165 99.47 174.165C99.47 174.165 98.96 207.5 98.46 208C97.96 208.5 90.375 208 89.875 208C88.875 192 76.73 181.61 75.23 181.235C73.23 180.735 70.095 183.255 61.595 183.255C58.595 183.255 50.99 182.75 50.99 182.75L50.485 206.485L49.475 208H42.91V207.495ZM50.99 174.67V166.59C50.99 166.59 51.0583 166.085 51.495 166.085C53.7516 166.085 63.63 171.655 65.13 173.155C65.4061 173.431 65.2409 174.128 65.13 174.165C63.63 174.665 62.3496 174.67 60.585 174.67H50.99ZM90.1275 184.265V177.447C90.1275 177.447 85.825 177.72 84.825 179.72C84.5349 180.3 88.37 184.77 89.37 184.77C89.6461 184.77 90.1275 184.265 90.1275 184.265Z" fill="url(#paint4_linear_39_7)"/>
<path fill-rule="evenodd" clip-rule="evenodd" d="M129 160.5V162C122.604 168.888 119.113 176.259 114.716 185.544L114.5 186H109C109 186 108.501 187.193 109 187.5C115.5 191.5 108.75 194.484 108.75 202.5C108.75 205.445 110.5 207.5 111.5 208H113H114.5C119 205.5 116.866 195.611 122.5 193.75C128.5 194.5 132.5 194.25 132.5 194.25C132.5 194.25 133 202.5 136.5 206.25C136.5 206.25 138.5 206.5 139 206.25C142 202.5 137.5 165 132 160.5H129ZM131 185.5H125C124 184 127 175 130 174.5C131.5 176.5 132.5 183 131 185.5Z" fill="url(#paint5_linear_39_7)"/>
<path d="M144 189.5C144 167 165 163.75 169 163.75C179.128 163.75 178.75 168.5 178.75 170.5C178.75 174.429 176.5 174.25 174 174.25C170.5 174.25 169.5 171 168 171C157 171 152 183 152 189.5C152 197 157.224 198.25 162.5 198.25C167.5 198.25 170.267 195 175.5 195C178 195 179.25 196.424 179.25 198.5C179.25 205.353 165 205 162 205C157.5 205 144 204.5 144 189.5Z" fill="url(#paint6_linear_39_7)"/>
<path d="M183.75 166.5L185 205H190L192.5 203.5L192 191C196 197.5 209.5 206.5 213 205C215.046 204.123 216.333 203.5 217 200.5C217.889 196.5 202.5 195.5 199.5 186.5C206 183.5 217 170 215.5 168.5C214.133 167.133 213.933 165 212 165C210.5 165 199.5 182 192 180.5C192 180.5 192.5 165.5 188.229 163.75C187 163 183.75 166.5 183.75 166.5Z" fill="url(#paint7_linear_39_7)"/>
<path d="M233.75 167.75C237.25 127.25 265.615 120 278.75 120C304.75 120 303.75 139.25 303.75 142.25C303.75 158.57 287.119 158.503 286.272 158.5L286.25 158.5C275.947 158.5 273.75 149.75 273.75 147.75C273.75 138.541 284.25 136.75 284.25 136.75C284.25 136.75 279.25 141.75 279.25 146.25C279.25 151.25 284.25 152.75 286.25 152.75C291.034 152.75 297.5 149.958 297.5 141.75C297.5 125.703 281.25 127.25 279.25 127.25C264.75 127.25 243.25 141.75 243 166.25C242.75 190.75 262.75 198.75 273.75 198.75C286.25 198.75 289.266 196.411 298.75 193.25C300.25 192.75 301.81 198.292 300.75 199.75C296.75 205.25 280.25 208.5 270.25 208.5C260.25 208.5 234.75 203.75 233.75 167.75Z" fill="url(#paint8_linear_39_7)"/>
<path d="M318.75 166.25C317.75 175.75 313.45 185.75 313.45 192.25C313.45 193.631 314.38 194.921 315.75 194.75C319.75 194.25 327.25 189.25 328.25 190.25C332.44 194.44 321.75 205.25 314.75 205.25C308.684 205.25 306.25 199.75 306.25 192.25C306.25 179.955 312.75 163.75 316.25 162.75C316.25 162.75 318.25 162.5 318.75 162.75C319.25 163 318.855 165.255 318.75 166.25Z" fill="url(#paint9_linear_39_7)"/>
<path d="M332.75 189.25C332.75 172.75 343.75 159.75 344.75 160.25C345.738 160.744 347.018 161.178 346.75 162.25C346.25 164.25 340.75 180.75 340.75 190.25C340.75 194.25 341.77 196.75 344.75 196.75C353.25 196.75 355.81 168.888 360.25 168C362.75 167.5 368.5 188.75 368.5 199.75C368.5 203.964 366.25 204.75 364.75 204.75C359.25 204.75 361.75 196.75 359.25 188.75C358.75 190.75 352.75 204.25 343.25 204.25C341.75 204.25 332.75 205.25 332.75 189.25Z" fill="url(#paint10_linear_39_7)"/>
<path fill-rule="evenodd" clip-rule="evenodd" d="M369.75 171.5C369.75 170.475 373.25 163.25 388.25 163.25C402.25 163.25 402.75 172.25 402.75 173.75C402.75 176.463 399.25 179.75 399.25 179.75C399.25 179.75 406 181.25 406 189.75C406 198.034 401.25 204.75 390.75 204.75C386.437 204.75 379.75 203.75 379.75 203.75C379.75 203.75 378.25 204.25 376.75 204.25C372.25 204.25 373 194.25 373 191.25C373 183.75 375.75 172.25 375.75 172.25C375.75 172.25 374.646 173 372.25 173C370.25 173 369.75 172.75 369.75 171.5ZM381.75 178.25C382.25 176.75 382.25 174.75 383.75 170.75C383.985 170.125 385.829 169.75 387.25 169.75H391.75C392.75 169.75 394.75 171.114 394.75 173.75C394.75 177.75 383.75 179.75 382.75 179.75C382.046 179.75 381.583 178.75 381.75 178.25ZM381.75 186.75C380.75 187.75 380.75 196 380.75 196H382.25C382.25 196 384.968 192.463 389.25 192.25C390.629 192.181 393.207 191.836 392.75 192.75C391.632 194.986 386.75 195.25 386.75 197.25H391.25C391.25 197.25 398.75 196.25 398.75 189.25C398.75 186.75 393.75 185.75 393.75 185.75C393.75 185.75 391.01 185.5 389.25 185.5C388.419 185.5 382.25 186.25 381.75 186.75Z" fill="url(#paint11_linear_39_7)"/>
</g>
</g>
<defs>
<filter id="filter0_f_39_7" x="109.895" y="7.48984" width="380.106" height="218.511" filterUnits="userSpaceOnUse" color-interpolation-filters="sRGB">
<feFlood flood-opacity="0" result="BackgroundImageFix"/>
<feBlend mode="normal" in="SourceGraphic" in2="BackgroundImageFix" result="shape"/>
<feGaussianBlur stdDeviation="1.5" result="effect1_foregroundBlur_39_7"/>
</filter>
<filter id="filter1_f_39_7" x="34" y="114.5" width="376.16" height="95.89" filterUnits="userSpaceOnUse" color-interpolation-filters="sRGB">
<feFlood flood-opacity="0" result="BackgroundImageFix"/>
<feBlend mode="normal" in="SourceGraphic" in2="BackgroundImageFix" result="shape"/>
<feGaussianBlur stdDeviation="1.5" result="effect1_foregroundBlur_39_7"/>
</filter>
<filter id="filter2_b_39_7" x="31.84" y="114.615" width="378.16" height="97.885" filterUnits="userSpaceOnUse" color-interpolation-filters="sRGB">
<feFlood flood-opacity="0" result="BackgroundImageFix"/>
<feGaussianBlur in="BackgroundImageFix" stdDeviation="2"/>
<feComposite in2="SourceAlpha" operator="in" result="effect1_backgroundBlur_39_7"/>
<feBlend mode="normal" in="SourceGraphic" in2="effect1_backgroundBlur_39_7" result="shape"/>
</filter>
<linearGradient id="paint0_linear_39_7" x1="198.5" y1="281" x2="294.5" y2="43" gradientUnits="userSpaceOnUse">
<stop stop-color="#00A0AE"/>
<stop offset="1" stop-color="#012034"/>
</linearGradient>
<linearGradient id="paint1_linear_39_7" x1="198.5" y1="281" x2="294.5" y2="43" gradientUnits="userSpaceOnUse">
<stop stop-color="#00A0AE"/>
<stop offset="1" stop-color="#012034"/>
</linearGradient>
<linearGradient id="paint2_linear_39_7" x1="280.114" y1="307.931" x2="386.459" y2="152.154" gradientUnits="userSpaceOnUse">
<stop stop-color="#AFBACC"/>
<stop offset="1" stop-color="#F8F9FD"/>
</linearGradient>
<linearGradient id="paint3_linear_39_7" x1="280.114" y1="307.931" x2="386.459" y2="152.154" gradientUnits="userSpaceOnUse">
<stop stop-color="#AFBACC"/>
<stop offset="1" stop-color="#F8F9FD"/>
</linearGradient>
<linearGradient id="paint4_linear_39_7" x1="202.5" y1="244" x2="228.5" y2="155" gradientUnits="userSpaceOnUse">
<stop stop-color="#AFBACC"/>
<stop offset="1" stop-color="#F8F9FD"/>
</linearGradient>
<linearGradient id="paint5_linear_39_7" x1="202.5" y1="244" x2="228.5" y2="155" gradientUnits="userSpaceOnUse">
<stop stop-color="#AFBACC"/>
<stop offset="1" stop-color="#F8F9FD"/>
</linearGradient>
<linearGradient id="paint6_linear_39_7" x1="202.5" y1="244" x2="228.5" y2="155" gradientUnits="userSpaceOnUse">
<stop stop-color="#AFBACC"/>
<stop offset="1" stop-color="#F8F9FD"/>
</linearGradient>
<linearGradient id="paint7_linear_39_7" x1="202.5" y1="244" x2="228.5" y2="155" gradientUnits="userSpaceOnUse">
<stop stop-color="#AFBACC"/>
<stop offset="1" stop-color="#F8F9FD"/>
</linearGradient>
<linearGradient id="paint8_linear_39_7" x1="202.5" y1="244" x2="228.5" y2="155" gradientUnits="userSpaceOnUse">
<stop stop-color="#AFBACC"/>
<stop offset="1" stop-color="#F8F9FD"/>
</linearGradient>
<linearGradient id="paint9_linear_39_7" x1="202.5" y1="244" x2="228.5" y2="155" gradientUnits="userSpaceOnUse">
<stop stop-color="#AFBACC"/>
<stop offset="1" stop-color="#F8F9FD"/>
</linearGradient>
<linearGradient id="paint10_linear_39_7" x1="202.5" y1="244" x2="228.5" y2="155" gradientUnits="userSpaceOnUse">
<stop stop-color="#AFBACC"/>
<stop offset="1" stop-color="#F8F9FD"/>
</linearGradient>
<linearGradient id="paint11_linear_39_7" x1="202.5" y1="244" x2="228.5" y2="155" gradientUnits="userSpaceOnUse">
<stop stop-color="#AFBACC"/>
<stop offset="1" stop-color="#F8F9FD"/>
</linearGradient>
<clipPath id="clip0_39_7">
<rect width="500" height="281" fill="white"/>
</clipPath>
</defs>
</svg>
