<svg width="701" height="499" viewBox="0 0 701 499" fill="none" xmlns="http://www.w3.org/2000/svg">
<path d="M247.5 242C247.361 191.187 287.696 149.959 338.5 149C390.406 148.02 433.422 190.586 433 242.5C432.582 293.864 390.361 335.193 339 334.5C288.194 333.814 247.639 292.811 247.5 242Z" fill="#082E6D"/>
<path fill-rule="evenodd" clip-rule="evenodd" d="M268 183C268 183 288.5 160 322 160C360.5 160 385.057 191.222 384.5 227C384.119 251.5 369 268.5 369 268.5C368 260 367.5 252 362 247.5C362 246.5 362 246 361.5 245.5C361.5 245.5 359 245.7 358.5 245.5C358 245.2 363.5 244 364.5 238.5C365 235 364.239 233.761 364.5 233.5C364.92 233.08 365.5 233 365.5 233C365.5 232.5 364.5 232 363.5 232C362.5 229.5 360 228 358 226.5C358 227 358.305 227.109 358.5 227.5C357.5 226.5 356 226.5 354.5 226.5C350.5 226.5 350.5 227 349 227.5H346C345.5 227 345.5 227 344.5 226.5C344.5 227.5 345 228 345.5 228.5L344 229C343 229.5 342.5 230 342.5 230.5C343 230.5 343.5 230.5 344 230V231C343.5 231 343 231.5 343 232V234C342.5 234.5 342.5 235 342.5 235.5C343 235.5 343 235.5 343.5 235C343.5 236.562 344 236.938 344 238.5C343 239 342.1 239.5 342 240C341.9 240.403 341.9 240.652 342 241C342.1 241.5 342 241.5 342.5 242C342.5 242 342.357 242.67 342.4 243C342.419 243.145 342.65 243.289 342.65 243.5C342.65 243.892 342.5 244 342.6 244.5L343 245.5C343 247.5 344 247.5 345.5 248L348.5 248.4C349 248.5 349.5 249 349.5 249.5C346.5 252.5 344.5 254.5 339.5 256.5C338 255.5 337.5 254.5 334.5 254.5C331 255 330 255.5 328.5 257.5C324.626 257.272 322.829 256.585 321.5 255.5C320 253.5 318.993 252.5 316 252.5C315.024 251.524 314.5 250.5 313.5 250L313 250.5C300 228.5 280.5 213 256.5 201L255.5 203.5C284 217.5 298.5 232 312 254.5C311 255 310.5 256 310.5 256C310.5 257 311.5 257.5 311.5 257.5C311.5 258.5 312.5 259.5 313 259.5C313.781 259.891 314 260.5 315 260.5C315 262 316 263 316.5 264.5C315.5 265 315 265.5 315 266C315 267 315.5 267.5 316 268C316 268.5 316.305 268.914 316.5 269.5C317 270 317.5 270.5 318.5 270.5L319.5 274C319.5 274 320 275 321 275C322 275 322 274 322 274L321.5 271C321.5 271 324.5 268.5 325 269C325.791 269.791 323.25 276.321 323.25 277C323.25 277.976 324.5 279 324.5 279C324 285 321 290 314.5 292H311.5C311 292.5 311 293.5 311.5 294C304.5 294 300.5 294 293.5 293C302.5 299.5 311.5 301 322 303C322.1 303.781 322.1 304.219 322 305C322.5 305.65 322.65 306 323.5 306.5C321 312.5 317.5 315.5 312.5 319.5C311.328 319.5 310.672 319.4 309.5 319.5C309.5 319.5 308.75 319.5 308.75 320.5C308.75 321.5 310.5 322 310.5 322C312 322.25 312.024 322.609 313 323C314 323.1 314.524 323.1 315.5 323C318 321.5 319.5 320.5 322 320H324.5C325.5 320 326 319.5 326 319C326 319 326.5 317 326 315C325.259 312.035 329 308.5 329 308.5C330 308.6 330.524 308.65 331.5 308.5C332.5 306.5 333 305.5 333 303.5C371 303.5 412 272.5 412 228.5C412 181.5 374 153 333.5 153C305 153 286 166.5 286 166.5C278 172 274 176 268 183ZM339 282C337.5 279 336 276 335 272C334.5 274.5 334 276.5 334 279.5C333.5 280.5 333.5 280.5 332.5 281H330.5C329 283.5 328.5 285.5 328.5 289C332 286 335 284.5 339 282ZM352 273.5C349.5 269.5 348 268 345.5 265C347.5 264.5 348.5 264.5 350 263.5C352 266.5 352 268 352 273.5ZM319 262.5C318.5 262 318.5 261.5 318 261H322C323.5 261 325.5 262 327 263C327 263.5 326.5 264 326 264H323.5C323.5 264 321.5 262.4 320 262.4C319.563 262.4 319 262.5 319 262.5Z" fill="white"/>
<path d="M338.405 144.001C284.871 145.012 242.353 188.472 242.5 242.014C242.647 295.553 285.396 338.777 338.932 339.5C393.066 340.23 437.56 296.675 438 242.541C438.445 187.813 393.126 142.967 338.405 144.001Z" stroke="white" stroke-width="10"/>
</svg>
