<svg width="701" height="499" viewBox="0 0 701 499" fill="none" xmlns="http://www.w3.org/2000/svg">
<path d="M247.5 242C247.361 191.187 287.696 149.959 338.5 149C390.406 148.02 433.422 190.586 433 242.5C432.582 293.864 390.361 335.193 339 334.5C288.194 333.814 247.639 292.811 247.5 242Z" fill="#082E6D"/>
<path fill-rule="evenodd" clip-rule="evenodd" d="M268 183C268 183 288.5 160 322 160C360.5 160 385.057 191.222 384.5 227C384.119 251.5 369 268.5 369 268.5C368 260 367.5 252 362 247.5C362 246.5 362 246 361.5 245.5C361.5 245.5 359 245.7 358.5 245.5C358 245.2 363.5 244 364.5 238.5C365 235 364.239 233.761 364.5 233.5C364.92 233.08 365.5 233 365.5 233C365.5 232.5 364.5 232 363.5 232C362.5 229.5 360 228 358 226.5C358 227 358.305 227.109 358.5 227.5C357.5 226.5 356 226.5 354.5 226.5C350.5 226.5 350.5 227 349 227.5H346C345.5 227 345.5 227 344.5 226.5C344.5 227.5 345 228 345.5 228.5L344 229C343 229.5 342.5 230 342.5 230.5C343 230.5 343.5 230.5 344 230V231C343.5 231 343 231.5 343 232V234C342.5 234.5 342.5 235 342.5 235.5C343 235.5 343 235.5 343.5 235C343.5 236.562 344 236.938 344 238.5C343 239 342.1 239.5 342 240C341.9 240.403 341.9 240.652 342 241C342.1 241.5 342 241.5 342.5 242C342.5 242 342.357 242.67 342.4 243C342.419 243.145 342.65 243.289 342.65 243.5C342.65 243.892 342.5 244 342.6 244.5L343 245.5C343 247.5 344 247.5 345.5 248L348.5 248.4C349 248.5 349.5 249 349.5 249.5C346.5 252.5 344.5 254.5 339.5 256.5C338 255.5 337.5 254.5 334.5 254.5C331 255 330 255.5 328.5 257.5C324.626 257.272 322.829 256.585 321.5 255.5C320 253.5 318.993 252.5 316 252.5C315.024 251.524 314.5 250.5 313.5 250L313 250.5C300 228.5 280.5 213 256.5 201L255.5 203.5C284 217.5 298.5 232 312 254.5C311 255 310.5 256 310.5 256C310.5 257 311.5 257.5 311.5 257.5C311.5 258.5 312.5 259.5 313 259.5C313.781 259.891 314 260.5 315 260.5C315 262 316 263 316.5 264.5C315.5 265 315 265.5 315 266C315 267 315.5 267.5 316 268C316 268.5 316.305 268.914 316.5 269.5C317 270 317.5 270.5 318.5 270.5L319.5 274C319.5 274 320 275 321 275C322 275 322 274 322 274L321.5 271C321.5 271 324.5 268.5 325 269C325.791 269.791 323.25 276.321 323.25 277C323.25 277.976 324.5 279 324.5 279C324 285 321 290 314.5 292H311.5C311 292.5 311 293.5 311.5 294C304.5 294 300.5 294 293.5 293C302.5 299.5 311.5 301 322 303C322.1 303.781 322.1 304.219 322 305C322.5 305.65 322.65 306 323.5 306.5C321 312.5 317.5 315.5 312.5 319.5C311.328 319.5 310.672 319.4 309.5 319.5C309.5 319.5 308.75 319.5 308.75 320.5C308.75 321.5 310.5 322 310.5 322C312 322.25 312.024 322.609 313 323C314 323.1 314.524 323.1 315.5 323C318 321.5 319.5 320.5 322 320H324.5C325.5 320 326 319.5 326 319C326 319 326.5 317 326 315C325.259 312.035 329 308.5 329 308.5C330 308.6 330.524 308.65 331.5 308.5C332.5 306.5 333 305.5 333 303.5C371 303.5 412 272.5 412 228.5C412 181.5 374 153 333.5 153C305 153 286 166.5 286 166.5C278 172 274 176 268 183ZM339 282C337.5 279 336 276 335 272C334.5 274.5 334 276.5 334 279.5C333.5 280.5 333.5 280.5 332.5 281H330.5C329 283.5 328.5 285.5 328.5 289C332 286 335 284.5 339 282ZM352 273.5C349.5 269.5 348 268 345.5 265C347.5 264.5 348.5 264.5 350 263.5C352 266.5 352 268 352 273.5ZM319 262.5C318.5 262 318.5 261.5 318 261H322C323.5 261 325.5 262 327 263C327 263.5 326.5 264 326 264H323.5C323.5 264 321.5 262.4 320 262.4C319.563 262.4 319 262.5 319 262.5Z" fill="white"/>
<path d="M338.405 144.001C284.871 145.012 242.353 188.472 242.5 242.014C242.647 295.553 285.396 338.777 338.932 339.5C393.066 340.23 437.56 296.675 438 242.541C438.445 187.813 393.126 142.967 338.405 144.001Z" stroke="white" stroke-width="10"/>
<path d="M146.8 347.5V349.5C153 349.5 153.5 351 153.5 353V376.5C153.5 379 152.5 380.2 147 380.2V382.2H171V380.2C165.5 380.2 164.5 379 164.5 376.5V365.2H186V377C186 379 185.5 380.2 179.2 380.2V382.3H203.8V380.2C198.5 380 197 379.5 197 376V353.5C197 349.5 199.5 349.5 203.8 349.5V347.5H179.688V349.387C186.356 349.387 186 351.5 186 353V362.5H164.5V353C164.5 349.387 168.238 349.387 171 349.387V347.5H146.8Z" fill="#D9D9D9"/>
<path fill-rule="evenodd" clip-rule="evenodd" d="M228.8 356.5L233.5 356L247.5 378C247.5 378 249.5 380.2 253.5 380.2V382.1H233V380.2C235.844 380.2 236.2 379.5 236.2 379C236 377.5 234.959 376.379 234.1 374.7H221.5L219.5 378.5C219.5 379.5 220.5 380.2 224 380.2V382.1H208.5V380.2C213.734 380.2 215.5 377 215.5 377C215.5 377 223.216 364.896 228.8 356.5ZM222.8 372.2L227.8 363.5L232.7 372.2H222.8Z" fill="#D9D9D9"/>
<path d="M259 370C259 357 279.75 356.1 283 356.1C290 356.1 295 357.3 295 357.3L296.2 364.2L293.4 364.6C293.4 364.6 291.156 358.3 282.5 358.3C276.195 358.3 270.5 362 270.5 369.1C270.5 380 282.241 380.61 283 380.6C290.5 380.5 294.5 374 294.5 374L297.4 374.6C296.189 377.295 296 379 294.3 381.5C294.3 381.5 289 382.8 282 382.8C280 382.8 259 382.8 259 370Z" fill="#D9D9D9"/>
<path d="M303.5 356.8V358.75C307.469 358.75 308.75 359.085 308.75 362V377C308.75 378.687 308.678 380.2 303.5 380.2V382.2H324.146V380.25C320.134 380.25 319 380 319 377V370C322 370 326.84 377.436 331.8 382.2H346.7L346.699 380.263C340 380.25 334.5 372.5 328.2 366.4C335 361 339 359 345.65 358.5V356.8H328.174V358.646C330.5 359 331.5 359 331.8 359.7C331.5 361.5 323.5 367 319 368.5V361.647C319 359 319.632 358.8 323.8 358.8V356.8H303.5Z" fill="#D9D9D9"/>
<path d="M351.6 365.2C351.6 347.995 378 346.6 382 346.6C389 346.6 398 348 398 348L399.75 357L396.7 357.4C396.7 357.4 394.5 349 382 349C369 349 364 356.9 364 364C364 379.5 381.241 380.51 382 380.5C393.684 380.344 398.1 372.4 398.1 372.4L401 373C399.789 375.695 398.5 379 396.5 381.5C396.5 381.5 389 383 382 383C378.5 383 351.6 382.2 351.6 365.2Z" fill="#D9D9D9"/>
<path d="M405.5 356.8H427.3V358.8C421.5 358.8 421.5 359.5 421.5 362V376.5C421.5 380 424 380 428 380C436.321 380 436 376.5 437.9 374.1L440.7 374.4L438.5 382.15H405.246V380.286C411.918 380.286 411 378 411 377V362.316C411 359.5 411 358.8 405.5 358.8V356.8Z" fill="#D9D9D9"/>
<path d="M444.7 356.8V358.5C450 358.5 450 360 450 362V372.093C450 380.5 459.502 382.961 467 382.8C481 382.8 483.3 375 483.3 371V365.138C483.3 360 483.5 358.6 489 358.6V356.8H472.7V358.6C478.407 358.6 479.5 360 479.5 364.5V371C479.5 374.5 477.5 379.5 470 379.5C468 379.5 460.5 379 460.5 371V362C460.5 360 460.5 358.6 465.8 358.6V356.8H444.7Z" fill="#D9D9D9"/>
<path d="M250 252C250 252 252.325 247.462 256 239.5C259 233 257.561 225.82 259 222C261.341 215.786 265.5 208.5 265.5 208.5L291.5 227.5C291.5 227.5 287.838 236.653 285 242.5C283.063 246.491 283.072 252.118 282 257C280.165 265.358 275 271.5 275 271.5L250 252Z" fill="white"/>
<path d="M261.437 239.24C261.338 239.178 261.319 239.166 261.282 239.006L262.727 235.529C262.807 235.36 262.985 235.403 263.063 235.453L268.083 238.608C268.385 238.661 268.441 238.512 268.461 238.311C268.511 237.795 268.391 236.897 269.255 235.521C271.292 232.28 274.141 234.07 275.025 234.626L282.195 239.133C282.352 239.232 282.318 239.396 282.278 239.459L280.353 242.523C280.278 242.642 280.14 242.665 280.022 242.591L273.326 238.381C272.704 238.1 271.707 237.375 271.169 238.232C270.549 239.349 271.75 240.926 272.83 241.606L278.429 245.125L278.502 245.445L276.588 248.49L276.268 248.563L261.437 239.24Z" fill="#082E6D"/>
<path fill-rule="evenodd" clip-rule="evenodd" d="M281.818 245.887C287.14 237.421 286.354 233.974 277.887 228.652C269.421 223.33 265.974 224.117 260.652 232.583C255.33 241.049 256.117 244.496 264.583 249.818C273.049 255.14 276.496 254.354 281.818 245.887Z" stroke="#082E6D"/>
</svg>
