<svg width="550" height="300" viewBox="0 0 550 300" fill="none" xmlns="http://www.w3.org/2000/svg">
<path d="M241.679 93.8603L236.447 95.2871C233.712 96.0331 231.615 98.2324 231 101C230.691 102.238 229.744 103.216 228.518 103.566L227 104L220.5 105.5C220.052 105.649 219.75 106.068 219.75 106.541V138.066C219.75 140.684 219.979 143.296 220.435 145.874L225.386 173.875C226.453 179.907 226.402 186.084 225.236 192.098L218.282 227.967C217.765 230.632 217.749 233.371 218.235 236.042L220.516 248.589C221.086 251.722 223.815 254 227 254H284H319C323.054 254 326.527 251.101 327.252 247.113L329.183 236.496C329.721 233.532 329.626 230.488 328.903 227.564L321.086 195.955C319.381 189.064 319.164 181.889 320.448 174.907L325.675 146.484C326.224 143.501 326.5 140.474 326.5 137.441V106.209C326.5 105.928 326.341 105.67 326.089 105.545C326.03 105.515 325.967 105.493 325.902 105.48L316.353 103.571C316.121 103.524 315.902 103.425 315.714 103.28C315.476 103.097 315.297 102.849 315.198 102.566L315 102L313.5 97C313.403 96.6786 313.189 96.4054 312.9 96.2352L312.737 96.1394C312.58 96.047 312.41 95.9788 312.232 95.937L304.185 94.0435C304.062 94.0146 303.942 93.9747 303.826 93.9243C303.212 93.6573 302.76 93.1156 302.608 92.4635L302.5 92L301.656 88.6979C301.464 87.9477 300.916 87.3395 300.19 87.0705C300.064 87.0236 299.933 86.9876 299.8 86.9631L281.649 83.6016C275.927 82.542 270.064 82.4893 264.324 83.446L246.336 86.444C246.113 86.4812 245.895 86.5451 245.687 86.6343C244.793 87.0175 244.158 87.8331 244.006 88.7939L243.533 91.7909C243.511 91.9301 243.478 92.0672 243.433 92.2009C243.163 93.0125 242.504 93.6352 241.679 93.8603Z" fill="white" stroke="white" stroke-width="25"/>
<path d="M230.5 103L219.75 105.75C211.5 155.5 238.5 197 273 220C306.5 197 334.5 155.5 326.5 105.75L315.35 103L313.35 96.5L302.85 93.5L301.35 87.5L273 82L244.25 87.25L243 93.5L232 96.5L230.5 103Z" fill="#221EA9"/>
<path d="M247.427 179.4C232.596 158.4 229 126.6 229 121.2H237.989C238.438 126 240.236 142.8 245.629 153H258.663V99H269V198.6C264.955 197.4 260.461 195.6 259.112 193V164.4H250.124C250.124 165.84 251.022 172.2 255.966 179.4L247.427 179.4Z" fill="white" stroke="white"/>
<path d="M277 199L277.5 99C298.5 108.195 304.5 113.943 308 119.115L301.5 130.034C299 125.437 292.833 119.881 288.5 118.54V173.138C290.9 173.598 299.5 163.943 301.5 159.92L308 169.69C306.5 174.287 300.5 182.333 277 199Z" fill="white" stroke="white"/>
<path d="M233 246.808V253.255H229.754V247.074V244.754L228.606 244.747H225.254V247V253.258H222V247.102V234H225.254V241.768H227.754H229.754V234H233V246.808Z" fill="#21006D"/>
<path d="M248.254 253.25H244.754L244.254 249.75H240.254L239.754 253.25H236.254L240.254 234H244.254L248.254 253.25ZM243.754 246.75L242.254 238.75L240.754 246.75H242.254H243.754Z" fill="#21006D"/>
<path d="M248.754 243.5C248.754 236.897 251.504 234 254.754 234C258.537 234 259.754 238.5 259.754 238.5L257.504 240.25H257.004C257.004 240.25 256.504 237.25 254.754 237.25C252.504 237.25 252.004 241 252.004 243.5C252.004 246.5 252.712 250 254.754 250C256.754 250 257.004 247 257.004 247L257.504 247L259.754 248.5C259.754 248.5 259.131 253.25 254.504 253.25C251.504 253.25 248.754 251.183 248.754 243.5Z" fill="#21006D"/>
<path d="M261.254 234V253.25H264.509V245L265.379 244L269.754 253.25H273.254V252.75L267.754 241L272.254 234.5V234H268.754L264.509 240.225V234H261.254Z" fill="#21006D"/>
<path d="M279.004 243.5C279.004 236.897 281.754 234 285.004 234C288.787 234 290.004 238.5 290.004 238.5L287.754 240.25H287.254C287.254 240.25 286.754 237.25 285.004 237.25C282.754 237.25 282.254 241 282.254 243.5C282.254 246.5 282.712 250 284.754 250C286.754 250 287.254 247 287.254 247L287.754 247L290.004 248.5C290.004 248.5 289.381 253.25 284.754 253.25C281.754 253.25 279.004 251.183 279.004 243.5Z" fill="#21006D"/>
<path d="M292.004 234V253.25H300.504L301.004 250H295.254V234H292.004Z" fill="#21006D"/>
<path d="M302.504 234V247.858C302.504 251 304.839 253.253 307.884 253.25C310.926 253.247 313.254 251 313.254 247.858V234H310.004V248.084C310.004 248.084 309.804 250 307.879 250C305.834 250 305.754 247.858 305.754 247.858V234H302.504Z" fill="#21006D"/>
<path fill-rule="evenodd" clip-rule="evenodd" d="M315.754 234V253.25H319.458C319.458 253.25 326.504 252.5 326.504 247C326.504 243.386 323.754 242.5 323.754 242.5C323.754 242.5 325.222 241.355 325.254 239C325.294 236.025 321.657 234 319.254 234H315.754ZM319.004 242.25V237.25C319.004 237.25 322.004 236.889 322.004 239.5C322.004 241.959 319.004 242.25 319.004 242.25ZM323.254 247C323.254 250.5 319.004 250 319.004 250V245.25C319.004 245.25 319.933 244.75 321.254 244.75C321.812 244.75 323.254 245 323.254 247Z" fill="#21006D"/>
</svg>
