<svg width="535" height="375" viewBox="0 0 535 375" fill="none" xmlns="http://www.w3.org/2000/svg">
<path d="M309 149.5C287.5 149.5 268 136 268 136C268 136 249 149.5 229.5 149.5H125.5C125.5 149.5 89 153.5 89 187.5C89 221.5 126 226 126 226H229.5C249 226 268 239.5 268 239.5C268 239.5 287.5 226 309 226H412C412 226 447 221.5 447 187.5C447 153.5 412 149.5 412 149.5H309Z" fill="white" stroke="white" stroke-width="30"/>
<path d="M309 149.5C287.5 149.5 268 136 268 136C268 136 249 149.5 229.5 149.5H125.5C125.5 149.5 89 153.5 89 187.5C89 221.5 126 226 126 226H229.5C249 226 268 239.5 268 239.5C268 239.5 287.5 226 309 226H412C412 226 447 221.5 447 187.5C447 153.5 412 149.5 412 149.5H309Z" fill="#051C49" stroke="#051C49" stroke-width="15"/>
<path d="M118.5 163H111.5C111.5 163 109.5 163 109.5 165C109.5 168 114.75 166.384 114.75 171V200.5C114.75 206.321 109.5 204 109.5 207.5C109.5 209.5 111.5 209.5 111.5 209.5H125.5C125.5 209.5 127.5 209.5 127.5 207.5C127.5 204 121.75 206.32 121.75 200.5V189.105C121.75 188.4 122.088 187.75 123 187.75H142.5C143.318 187.75 144.25 188.138 144.25 189.5V201.5C144.25 205.926 138.75 204 138.75 207.5C138.75 209.5 140.5 209.5 140.5 209.5H154.5C154.5 209.5 156.75 209.5 156.75 207.5C156.75 204 151.5 205.93 151.5 201.5V170.414C151.5 166.5 156.5 168 156.5 165C156.5 162.5 154.5 162.75 154.5 162.75H140.5C140.5 162.75 138.75 163.285 138.75 165C138.75 168.139 144.25 166.34 144.25 170.414V180.5C144.25 182.012 143.098 182.25 142.795 182.25H123.5L122 181V171C122 166 127.25 168 127.25 165C127.25 163 125 163 125 163H118.5Z" fill="#D9D9D9"/>
<path fill-rule="evenodd" clip-rule="evenodd" d="M173 186.5C177 186.5 179.889 187.917 180.5 187C181 186.25 179.78 179.75 173.5 179.75C167 179.75 164.5 184.25 162 184.25C160.565 184.25 159.5 181 159.5 180C159.5 176.767 165.5 174.5 173.5 174.5C190.232 174.5 187.5 190 191 202C192 204.5 195 205.875 195 207.5C195 209.125 193.43 209.75 191.5 209.75C187.179 209.75 185.5 206 184.5 206C183.5 206 178.858 210 172 210C168 210 159.25 207.5 159.25 198.5C159.25 188 171 186.5 173 186.5ZM183 199.5C182.5 194.5 182.684 191.5 175.5 191.5C167.727 191.5 166.5 196 166.5 198C166.5 200.5 168 205 174 205C174.326 205 183 205 183 199.5Z" fill="#D9D9D9"/>
<path d="M197 192.5C197 181 205.5 174 214.5 174C225 174 229.5 181.102 229.5 183C229.5 185.5 226.267 188.25 225 188.25C223.099 188.25 219.5 179.25 213.5 179.25C207.897 179.25 204 184.5 204 190C204 202 214 204 216 204C222.5 204 225.5 199.5 226 199C226.5 198.5 226.789 198.5 227.5 198.5C228 198.5 229.003 199.837 229.5 200.5C231 202.5 223 210.5 214.5 210.5C212 210.5 197 208.5 197 192.5Z" fill="#D9D9D9"/>
<path d="M231.75 165C231.75 163 233.5 163.25 233.5 163.25H241.5C242.895 163.25 243 163.5 243 165C243.5 166 243 168 243 184.125C243 185 243.405 184.807 243.75 184.5C246 182.5 253.879 174.75 260.75 174.75C262.75 174.75 264.596 180.781 263.5 181C261 181.5 250 183.5 248 186.5C258.5 190.5 256.5 197 262.5 203.5C264.046 205.175 266.75 205.554 266.75 207.5C266.75 208.287 266.227 209.4 265 209.4H258C256.861 209.4 256 209 255.5 208C251.987 200.975 250.811 191.5 244 191.5C243.448 191.5 243 191.569 243 192.5V202C243 206 248 204.5 248 207.5C248 209.5 245.5 209.5 245.5 209.5H233.5C233.5 209.5 231.75 209.18 231.75 207.5C231.75 205.06 236 206 236 202V170C236 167 231.75 167.385 231.75 165Z" fill="#D9D9D9"/>
<path d="M309 149.5C287.5 149.5 268 136 268 136C268 136 249 149.5 229.5 149.5H125.5C125.5 149.5 89 153.5 89 187.5C89 221.5 126 226 126 226H229.5C249 226 268 239.5 268 239.5C268 239.5 287.5 226 309 226H412C412 226 447 221.5 447 187.5C447 153.5 412 149.5 412 149.5H309Z" stroke="#5FC1C1" stroke-width="3"/>
</svg>
