<svg width="435" height="213" viewBox="0 0 435 213" fill="none" xmlns="http://www.w3.org/2000/svg">
<rect width="435" height="213" fill="#EC1D26"/>
<path fill-rule="evenodd" clip-rule="evenodd" d="M145 6.00944L115 206.009H151L155 175.009H183L187 206.009H224L193 6.00944H145ZM179 143.009H159L169 61.0095L179 143.009Z" fill="white"/>
<path d="M7 6.00944V206.009H45V124.009H74V206.009H110V6.00944H74V87.0094H45V6.00944H7Z" fill="white"/>
<path d="M229 104.509C229 2.99856 309 6.00944 309 6.00944V43.0095C309 43.0095 265 33.5096 265 104.509C265 178.51 309 170.009 309 170.009V206.009C309 206.009 229 221.51 229 104.509Z" fill="white"/>
<path d="M319 6.00944V206.009H355V126.009L393.5 206.009H429V203.009L383 106.509V105.509L429 9.00944V6.00944H393L355 86.0094V6.00944L319 6.00944Z" fill="white"/>
<path fill-rule="evenodd" clip-rule="evenodd" d="M145 6.00944L115 206.009H151L155 175.009H183L187 206.009H224L193 6.00944H145ZM179 143.009H159L169 61.0095L179 143.009Z" stroke="black"/>
<path d="M7 6.00944V206.009H45V124.009H74V206.009H110V6.00944H74V87.0094H45V6.00944H7Z" stroke="black"/>
<path d="M229 104.509C229 2.99856 309 6.00944 309 6.00944V43.0095C309 43.0095 265 33.5096 265 104.509C265 178.51 309 170.009 309 170.009V206.009C309 206.009 229 221.51 229 104.509Z" stroke="black"/>
<path d="M319 6.00944V206.009H355V126.009L393.5 206.009H429V203.009L383 106.509V105.509L429 9.00944V6.00944H393L355 86.0094V6.00944L319 6.00944Z" stroke="black"/>
</svg>
