<svg width="413" height="406" viewBox="0 0 413 406" fill="none" xmlns="http://www.w3.org/2000/svg">
<rect x="41.4" y="37.8" width="330" height="330" rx="15" fill="white"/>
<circle cx="206.1" cy="203.1" r="133.5" fill="black"/>
<path d="M109.2 136.8V264.6H138V212.4C138 212.4 137.4 198 152.4 198C166.203 198 165 212.4 165 212.4V264.6H195.6V209.1C195.6 209.1 192.9 171 157.8 171C145.5 171 138 178.2 138 178.2V136.8L109.2 136.8Z" fill="white"/>
<path d="M205.8 219.6C205.8 192.257 227.658 170.804 255 171C296.7 171.298 303.6 210.6 303.6 210.6H274.8C274.8 210.6 272.4 197.92 255 198C243.071 198.055 233.4 205.8 233.4 219.6C233.4 233.4 243.071 241.145 255 241.2C272.4 241.242 274.8 228.6 274.8 228.6H303.6C303.6 228.6 297.3 268.2 255 268.2C227.657 268.2 205.8 246.943 205.8 219.6Z" fill="white"/>
<path d="M109.2 136.8V264.6H138V212.4C138 212.4 137.4 198 152.4 198C166.203 198 165 212.4 165 212.4V264.6H195.6V209.1C195.6 209.1 192.9 171 157.8 171C145.5 171 138 178.2 138 178.2V136.8L109.2 136.8Z" stroke="white" stroke-width="0.6"/>
<path d="M205.8 219.6C205.8 192.257 227.658 170.804 255 171C296.7 171.298 303.6 210.6 303.6 210.6H274.8C274.8 210.6 272.4 197.92 255 198C243.071 198.055 233.4 205.8 233.4 219.6C233.4 233.4 243.071 241.145 255 241.2C272.4 241.242 274.8 228.6 274.8 228.6H303.6C303.6 228.6 297.3 268.2 255 268.2C227.657 268.2 205.8 246.943 205.8 219.6Z" stroke="white" stroke-width="0.6"/>
</svg>
